<svg width="73" height="75" viewBox="0 0 73 75" fill="none" xmlns="http://www.w3.org/2000/svg">
<circle cx="32.5" cy="32.5" r="32.5" fill="#DDF2FF"/>
<g clip-path="url(#clip0_116_11)">
<path d="M20.0684 19H62.3906C64.8585 19.8967 65.5423 20.8855 65.5423 23.561V38.5819H69.7796C71.533 38.5819 72.2636 39.1047 73.0029 40.8646V68.0847C72.4185 69.7788 71.2057 70.4083 69.4596 70.3148C68.0423 70.2389 66.6177 70.2973 65.196 70.3002C65.0046 70.3002 64.8117 70.3163 64.6262 70.3236C64.4537 73.2445 62.2006 75.0219 59.366 74.9971C49.7093 74.9255 40.0496 74.9708 30.3914 74.9693C27.3581 74.9693 25.4104 73.0167 25.4075 69.9775C25.4075 65.9709 25.4075 61.9639 25.4075 57.9564V57.2802C25.1781 57.2685 25.0013 57.2525 24.823 57.2525C23.5474 57.2525 22.2718 57.2525 20.9962 57.2525C18.5693 57.2481 17 55.681 17 53.2493C17 49.3694 17 45.4894 17 41.6094C17 35.3616 17 29.1142 17 22.8673C17 21.0052 18.0491 19.6295 19.8273 19.111C19.9108 19.0812 19.9915 19.0441 20.0684 19ZM22.6225 49.7574H54.3294V49.1337C54.3294 46.6928 54.3294 44.2524 54.3294 41.8124C54.3294 39.6875 55.437 38.5834 57.563 38.5819H59.8847V24.6301H22.6254L22.6225 49.7574ZM71.1326 52.6009V42.2214C71.1326 40.5783 70.9602 40.4002 69.3121 40.4688C69.1977 40.4841 69.0878 40.5235 68.9898 40.5844C68.8918 40.6453 68.8079 40.7264 68.7437 40.8222C68.3974 41.4181 68.1241 42.0578 67.7968 42.6653C67.2796 43.6234 66.4745 44.1579 65.3743 44.1769C64.2273 44.1959 63.0773 44.1974 61.9303 44.1769C60.8549 44.1565 60.0615 43.6322 59.5457 42.6989C59.2688 42.2493 59.034 41.7751 58.8444 41.2823C58.6077 40.5637 58.1606 40.3899 57.4504 40.4411C56.5168 40.5097 56.1895 40.7711 56.1895 41.6956C56.1895 48.9638 56.1895 56.2326 56.1895 63.5018C56.1895 64.4087 56.5022 64.714 57.4095 64.714H69.879C70.8463 64.714 71.1356 64.4219 71.1356 63.4317C71.1375 59.8175 71.138 56.2072 71.137 52.6009H71.1326ZM62.6872 70.3528C62.6435 70.3325 62.5973 70.3178 62.5499 70.309L57.4738 70.2988C55.4501 70.2988 54.3338 69.1786 54.3324 67.1544C54.3324 64.0757 54.3324 60.9971 54.3324 57.9184V57.3006H46.54C46.8045 57.8293 47.0602 58.2908 47.2706 58.7728C47.3919 59.0576 47.5629 59.1321 47.8551 59.1233C48.4746 59.1029 49.0956 59.1087 49.7137 59.1233C50.4418 59.1298 51.138 59.4229 51.6514 59.9391C52.1648 60.4552 52.454 61.1528 52.4562 61.8807C52.4694 63.4346 51.2873 64.695 49.7254 64.6994C44.0951 64.714 38.4643 64.714 32.833 64.6994C32.1039 64.6793 31.4116 64.3747 30.9043 63.8508C30.3971 63.3269 30.1152 62.6254 30.119 61.8963C30.1228 61.1673 30.4121 60.4687 30.9248 59.9501C31.4375 59.4316 32.1329 59.1343 32.8622 59.1218C33.4818 59.1102 34.1013 59.1306 34.7194 59.1102C34.8757 59.1102 35.1022 59.0371 35.1679 58.9232C35.4602 58.4091 35.7144 57.8688 36.0081 57.286H27.2938C27.2938 57.4189 27.2748 57.5241 27.2748 57.6307C27.2748 61.8553 27.2748 66.081 27.2748 70.3075C27.2739 70.5254 27.2989 70.7426 27.3493 70.9545C27.6839 72.3171 28.7739 73.1102 30.3111 73.1102H59.6656C59.8117 73.1102 59.9578 73.1102 60.1039 73.1029C61.5782 72.9992 62.7457 71.7636 62.6872 70.3528ZM54.2958 51.6589H23.0272C21.42 51.6589 20.723 50.9754 20.723 49.3747V25.0551C20.723 23.3989 21.3922 22.7256 23.0331 22.7256H59.5034C61.1106 22.7256 61.8018 23.4091 61.8018 25.0127C61.8018 29.3123 61.8018 33.6119 61.8018 37.9115V38.5512H63.6691V37.9364C63.6691 32.999 63.6691 28.0622 63.6691 23.1258C63.6691 21.5573 62.9721 20.8621 61.4014 20.8621H21.1102C19.5629 20.8621 18.8644 21.5544 18.8644 23.0864V53.1456C18.8644 54.6835 19.5658 55.3904 21.0956 55.3904H54.2958V51.6589ZM41.2259 60.9796H33.2436C33.0798 60.9722 32.9158 60.9766 32.7526 60.9927C32.5307 61.0234 32.3274 61.1333 32.1803 61.3022C32.0331 61.471 31.9521 61.6874 31.9521 61.9113C31.9521 62.1353 32.0331 62.3516 32.1803 62.5205C32.3274 62.6893 32.5307 62.7993 32.7526 62.83C32.8798 62.8427 33.0077 62.8466 33.1355 62.8416H49.4287C49.5379 62.8453 49.6472 62.8424 49.756 62.8329C49.9851 62.8105 50.1976 62.7038 50.3522 62.5334C50.5068 62.3631 50.5924 62.1413 50.5924 61.9113C50.5924 61.6813 50.5068 61.4596 50.3522 61.2892C50.1976 61.1189 49.9851 61.0121 49.756 60.9898C49.5928 60.9761 49.4288 60.9727 49.2651 60.9796H41.2259ZM56.2508 66.5147C56.02 68.0832 56.3838 68.4674 57.8055 68.4498C61.7725 68.4016 65.741 68.4338 69.708 68.4323C69.8907 68.4323 70.0733 68.4323 70.253 68.425C70.4752 68.4224 70.688 68.3356 70.8486 68.1822C71.0092 68.0287 71.1055 67.8201 71.118 67.5984C71.1435 67.2377 71.1464 66.8758 71.1268 66.5147H56.2508ZM37.1931 59.0897H45.3361C45.0438 58.5055 44.7969 57.9739 44.5134 57.4511C44.4744 57.3973 44.4241 57.3527 44.3661 57.3204C44.308 57.2882 44.2436 57.2689 44.1774 57.2641C42.2506 57.2525 40.3233 57.2525 38.3956 57.2641C38.3204 57.2689 38.2473 57.2902 38.1813 57.3265C38.1154 57.3629 38.0583 57.4134 38.0142 57.4744C37.7308 57.9783 37.4868 58.5011 37.1931 59.0897ZM66.8252 40.4469H60.5072C60.7716 40.9741 60.9309 41.4342 61.2129 41.8008C61.4165 42.0637 61.7138 42.238 62.0428 42.2871C63.1299 42.344 64.2243 42.3367 65.3144 42.2871C65.4626 42.2718 65.6064 42.2273 65.7373 42.1561C65.8682 42.0849 65.9837 41.9884 66.0771 41.8723C66.3678 41.4736 66.549 40.9917 66.8252 40.4469Z" fill="#0092E7"/>
<path d="M44.9079 39.7079C44.5017 39.6597 44.0853 39.6713 43.7127 39.5501C43.2101 39.388 42.9237 39.5808 42.5876 39.9225C40.2595 42.2817 37.9158 44.6267 35.5566 46.9576C33.7681 48.7101 30.8327 47.9478 30.1898 45.5599C29.8522 44.3112 30.2146 43.2334 31.1307 42.3206C33.4817 39.9839 35.8196 37.6296 38.1749 35.2943C38.4423 35.0285 38.5417 34.8065 38.4672 34.402C37.6592 30.3317 40.5858 26.6338 44.7282 26.4615C45.0214 26.4538 45.3147 26.4714 45.6049 26.514C45.9253 26.5446 46.2294 26.6699 46.4784 26.8738C46.7274 27.0777 46.9101 27.351 47.0032 27.659C47.1212 27.9585 47.1509 28.2854 47.0887 28.6012C47.0266 28.917 46.8752 29.2083 46.6525 29.4408C46.2976 29.8564 45.9101 30.2432 45.4938 30.5975C44.997 30.9918 44.8699 31.4562 45.038 32.0273C45.1227 32.3194 45.2338 32.8218 45.374 32.8364C45.9746 32.9006 46.6277 33.3811 47.2005 32.7108C47.5657 32.2829 47.9997 31.9134 48.3928 31.5088C48.9568 30.9246 49.6187 30.7348 50.3843 31.0152C51.1499 31.2956 51.4568 31.8827 51.5328 32.6553C51.8411 35.8084 49.4185 38.9659 46.2215 39.5501C45.7846 39.629 45.3463 39.6567 44.9079 39.7079ZM45.0862 28.493L44.9576 28.3469C41.7431 28.2841 39.4315 31.4066 40.4193 34.5101C40.6224 35.1497 40.523 35.5981 40.0423 36.0713C37.5583 38.5263 35.0861 41.0091 32.6123 43.4817C32.4657 43.6173 32.3294 43.7638 32.2047 43.9198C32.0465 44.1232 31.9532 44.3695 31.937 44.6266C31.9209 44.8837 31.9826 45.1397 32.1141 45.3613C32.3829 45.8535 32.8447 46.1295 33.3853 46.0112C33.7701 45.9244 34.1238 45.734 34.4081 45.4606C36.8921 43.0187 39.3555 40.5666 41.7898 38.0809C42.348 37.5113 42.8492 37.3609 43.6236 37.6019C46.2536 38.4197 49.0298 36.7256 49.5675 34.031C49.6377 33.682 49.6435 33.3212 49.6888 32.8729C49.6108 32.9169 49.5357 32.9656 49.4638 33.0189C49.3401 33.1265 49.2262 33.2447 49.1233 33.3724C48.1224 34.7729 46.8074 35.2286 45.1592 34.7364C45.1235 34.7293 45.0874 34.7245 45.0511 34.7218C44.0517 34.5393 43.4029 33.8675 43.2554 32.8583C43.2013 32.4975 43.1779 32.128 43.1092 31.7761C42.9368 30.9305 43.1911 30.2324 43.8106 29.6555C44.2285 29.2612 44.6595 28.8785 45.0862 28.493Z" fill="#0092E7"/>
<path d="M64.5911 51.6705C64.5911 52.5614 64.5984 53.4523 64.5911 54.3432C64.5838 54.9726 64.1878 55.3976 63.6487 55.383C63.1095 55.3684 62.7384 54.9595 62.7355 54.3607C62.7238 52.5614 62.7238 50.7602 62.7355 48.957C62.7355 48.3144 63.1256 47.9215 63.6881 47.9346C64.2507 47.9478 64.5882 48.3334 64.594 48.9979C64.597 49.8887 64.5911 50.7796 64.5911 51.6705Z" fill="#0092E7"/>
<path d="M64.5867 58.2032C64.5841 58.326 64.5571 58.447 64.5074 58.5593C64.4577 58.6715 64.3862 58.7728 64.2971 58.8573C64.2079 58.9418 64.1029 59.0077 63.9881 59.0514C63.8733 59.0951 63.751 59.1155 63.6282 59.1116C63.3905 59.0962 63.1671 58.9927 63.0015 58.8216C62.8359 58.6504 62.74 58.4237 62.7325 58.1857C62.7349 57.9379 62.8354 57.7012 63.012 57.5273C63.1887 57.3535 63.4271 57.2568 63.675 57.2583C63.7977 57.258 63.9191 57.2825 64.0321 57.3303C64.1451 57.3782 64.2472 57.4483 64.3323 57.5366C64.4175 57.6248 64.4839 57.7294 64.5277 57.8439C64.5714 57.9585 64.5915 58.0807 64.5867 58.2032Z" fill="#0092E7"/>
</g>
<defs>
<clipPath id="clip0_116_11">
<rect width="56" height="56" fill="white" transform="translate(17 19)"/>
</clipPath>
</defs>
</svg>
